<svg width="831" height="62" viewBox="0 0 831 62" fill="none" xmlns="http://www.w3.org/2000/svg">
<g clip-path="url(#clip0_34_24)">
<g clip-path="url(#clip1_34_24)">
<path d="M1.69772 60.8621C1.29122 60.8621 0.937561 60.7482 0.636751 60.5206C0.32781 60.3011 0.17334 59.9881 0.17334 59.5816V17.7527C0.17334 17.1836 0.32781 16.7974 0.636751 16.5942C0.937561 16.3909 1.29122 16.2893 1.69772 16.2893C2.06357 16.2893 2.40096 16.4194 2.7099 16.6795C3.01071 16.9478 3.29526 17.273 3.56355 17.6551C3.82372 18.0454 4.0351 18.4234 4.1977 18.7893L15.3561 40.6183L26.6365 18.7893C26.8398 18.4234 27.0634 18.0454 27.3073 17.6551C27.5512 17.273 27.8357 16.9478 28.1609 16.6795C28.4861 16.4194 28.8113 16.2893 29.1365 16.2893C29.5837 16.2893 29.9495 16.3909 30.2341 16.5942C30.5186 16.7974 30.6609 17.1836 30.6609 17.7527V59.5816C30.6609 59.9881 30.5105 60.3011 30.2097 60.5206C29.9007 60.7482 29.543 60.8621 29.1365 60.8621C28.7707 60.8621 28.4251 60.7482 28.0999 60.5206C27.7747 60.3011 27.6121 59.9881 27.6121 59.5816V23.2404L16.7586 43.972C16.5553 44.4191 16.3317 44.7321 16.0878 44.911C15.8439 45.098 15.6 45.1915 15.3561 45.1915C15.1529 45.1915 14.9293 45.098 14.6854 44.911C14.4415 44.7321 14.2179 44.4191 14.0147 43.972L3.22209 23.1185V59.5816C3.22209 59.9881 3.05949 60.3011 2.73429 60.5206C2.40909 60.7482 2.06357 60.8621 1.69772 60.8621ZM52.0144 61.2279C49.6567 61.2279 47.6648 60.5653 46.0388 59.2401C44.4128 57.9231 43.5998 55.9028 43.5998 53.1792C43.5998 51.0248 44.2014 49.3581 45.4047 48.1792C46.5998 47.0004 48.2664 46.1752 50.4046 45.7037C52.5347 45.2402 55.0021 45.0085 57.807 45.0085H61.0996V43.4232C61.0996 42.0004 60.8476 40.598 60.3436 39.2159C59.8314 37.8338 59.0184 36.6956 57.9046 35.8013C56.7826 34.907 55.2867 34.4599 53.4168 34.4599C52.116 34.4599 51.051 34.5899 50.2217 34.8501C49.3843 35.1184 48.7136 35.4029 48.2095 35.7037C47.6973 36.0127 47.299 36.1672 47.0144 36.1672C46.6079 36.1672 46.2827 35.972 46.0388 35.5818C45.7949 35.1997 45.673 34.846 45.673 34.5208C45.673 34.033 46.0713 33.5737 46.8681 33.1428C47.6567 32.72 48.6607 32.3745 49.8802 32.1062C51.0997 31.8461 52.3192 31.716 53.5387 31.716C56.181 31.716 58.2663 32.2729 59.7948 33.3867C61.3151 34.5086 62.4126 35.9517 63.0874 37.7159C63.7541 39.4883 64.0874 41.3907 64.0874 43.4232V59.5816C64.0874 59.9068 63.9573 60.1995 63.6972 60.4596C63.4289 60.7279 63.0712 60.8621 62.624 60.8621C62.2175 60.8621 61.872 60.7279 61.5874 60.4596C61.3029 60.1995 61.1606 59.9068 61.1606 59.5816V56.5938C60.1444 57.7727 58.8761 58.8377 57.3558 59.7889C55.8273 60.7482 54.0469 61.2279 52.0144 61.2279ZM52.4412 58.545C53.8639 58.545 55.2379 58.1873 56.5631 57.4719C57.8802 56.7645 58.9655 55.8906 59.8192 54.8499C60.6728 53.8174 61.0996 52.854 61.0996 51.9597V47.4475H58.1119C56.12 47.4475 54.2501 47.5573 52.5022 47.7768C50.7542 48.0045 49.3315 48.5166 48.2339 49.3134C47.1364 50.102 46.5876 51.35 46.5876 53.0573C46.5876 54.9678 47.1567 56.358 48.2949 57.228C49.4331 58.106 50.8152 58.545 52.4412 58.545ZM79.3556 60.8621C78.9491 60.8621 78.6036 60.7279 78.319 60.4596C78.0345 60.1995 77.8922 59.9068 77.8922 59.5816V15.4356C77.8922 15.0291 78.0345 14.7161 78.319 14.4966C78.6036 14.269 78.9491 14.1552 79.3556 14.1552C79.8027 14.1552 80.1686 14.269 80.4531 14.4966C80.7377 14.7161 80.88 15.0291 80.88 15.4356V46.1061L96.6115 32.3257C96.8961 32.1225 97.1603 32.0209 97.4042 32.0209C97.6481 32.0209 97.8798 32.0696 98.0993 32.1672C98.327 32.2729 98.5221 32.4274 98.6847 32.6306C98.8473 32.8339 98.9286 33.0981 98.9286 33.4233C98.9286 33.5859 98.9083 33.7566 98.8676 33.9355C98.827 34.1225 98.705 34.2769 98.5018 34.3989L89.1116 42.6305L100.026 58.7279C100.189 58.9312 100.27 59.1548 100.27 59.3987C100.27 59.6426 100.197 59.8865 100.051 60.1304C99.9123 60.3743 99.7213 60.5653 99.4774 60.7035C99.2335 60.8499 98.9692 60.923 98.6847 60.923C98.2782 60.923 97.953 60.7198 97.7091 60.3133L86.9165 44.5207L80.88 49.8256V59.5816C80.88 59.9068 80.7377 60.1995 80.4531 60.4596C80.1686 60.7279 79.8027 60.8621 79.3556 60.8621ZM121.867 61.2279C119.388 61.2279 117.201 60.7604 115.307 59.8255C113.42 58.8905 111.928 57.5775 110.831 55.8865C109.733 54.2036 109.185 52.2239 109.185 49.9475V42.6915C109.185 40.6996 109.701 38.8704 110.733 37.2037C111.774 35.5371 113.136 34.2038 114.819 33.2038C116.51 32.2119 118.372 31.716 120.404 31.716C122.396 31.716 124.225 32.1916 125.892 33.1428C127.558 34.1021 128.908 35.4029 129.941 37.0452C130.981 38.6956 131.501 40.598 131.501 42.7525C131.501 44.2565 131.245 45.3419 130.733 46.0085C130.229 46.6833 129.591 47.0898 128.819 47.228C128.046 47.3744 127.213 47.4475 126.319 47.4475H112.172V50.0085C112.172 52.6101 113.107 54.6711 114.977 56.1914C116.847 57.7198 119.185 58.484 121.989 58.484C123.656 58.484 124.936 58.2808 125.831 57.8743C126.725 57.4678 127.416 57.0613 127.904 56.6548C128.392 56.2483 128.839 56.045 129.245 56.045C129.53 56.045 129.774 56.1263 129.977 56.2889C130.18 56.4515 130.343 56.6426 130.465 56.8621C130.587 57.0897 130.648 57.3052 130.648 57.5084C130.648 57.9149 130.29 58.4231 129.575 59.0328C128.867 59.6426 127.863 60.1588 126.562 60.5816C125.262 61.0125 123.697 61.2279 121.867 61.2279ZM112.172 42.4476V44.9476H125.16C126.542 44.9476 127.457 44.8053 127.904 44.5207C128.351 44.2362 128.575 43.6468 128.575 42.7525C128.575 41.3704 128.237 40.037 127.562 38.7525C126.896 37.4761 125.941 36.4314 124.697 35.6184C123.461 34.8054 122.03 34.3989 120.404 34.3989C118.859 34.3989 117.465 34.7647 116.221 35.4964C114.985 36.2281 114.002 37.2037 113.27 38.4232C112.538 39.6427 112.172 40.9842 112.172 42.4476ZM173.855 60.8621C173.448 60.8621 173.091 60.7482 172.782 60.5206C172.481 60.3011 172.33 59.9881 172.33 59.5816V44.0329C172.33 43.8703 172.29 43.7281 172.208 43.6061L159.587 18.7893C159.505 18.5454 159.432 18.3218 159.367 18.1185C159.31 17.9153 159.282 17.7527 159.282 17.6307C159.282 17.3462 159.363 17.1145 159.526 16.9356C159.688 16.7486 159.871 16.5942 160.074 16.4722C160.278 16.3503 160.501 16.2893 160.745 16.2893C160.989 16.2893 161.233 16.3787 161.477 16.5576C161.721 16.7446 161.944 17.021 162.148 17.3868L173.855 40.8622L185.623 17.3868C185.826 17.021 186.05 16.7446 186.294 16.5576C186.538 16.3787 186.781 16.2893 187.025 16.2893C187.269 16.2893 187.493 16.3503 187.696 16.4722C187.899 16.5942 188.07 16.7486 188.208 16.9356C188.355 17.1145 188.428 17.3462 188.428 17.6307C188.428 17.7527 188.408 17.9153 188.367 18.1185C188.326 18.3218 188.245 18.5454 188.123 18.7893L175.44 43.6061C175.399 43.7281 175.379 43.8703 175.379 44.0329V59.5816C175.379 59.9881 175.217 60.3011 174.891 60.5206C174.566 60.7482 174.221 60.8621 173.855 60.8621ZM203.928 61.2279C201.976 61.2279 200.147 60.6995 198.44 59.6426C196.733 58.5857 195.359 57.2036 194.318 55.4963C193.286 53.789 192.769 51.9394 192.769 49.9475V42.8744C192.769 40.8826 193.277 39.033 194.294 37.3257C195.31 35.6184 196.672 34.2566 198.379 33.2404C200.086 32.2241 201.936 31.716 203.928 31.716C205.96 31.716 207.818 32.2119 209.501 33.2038C211.192 34.2038 212.554 35.5452 213.586 37.2281C214.627 38.9192 215.147 40.8013 215.147 42.8744V49.9475C215.147 51.8987 214.627 53.7402 213.586 55.4719C212.554 57.1954 211.192 58.5857 209.501 59.6426C207.818 60.6995 205.96 61.2279 203.928 61.2279ZM203.928 58.4231C205.472 58.4231 206.854 58.0166 208.074 57.2036C209.293 56.3906 210.277 55.3337 211.025 54.0329C211.781 52.7321 212.159 51.3703 212.159 49.9475V42.8744C212.159 41.4517 211.793 40.1102 211.062 38.8501C210.33 37.5899 209.342 36.5533 208.098 35.7403C206.863 34.9273 205.472 34.5208 203.928 34.5208C202.383 34.5208 201.001 34.9273 199.781 35.7403C198.562 36.5533 197.586 37.5899 196.855 38.8501C196.123 40.1102 195.757 41.4517 195.757 42.8744V49.9475C195.757 51.3703 196.123 52.7321 196.855 54.0329C197.586 55.3337 198.57 56.3906 199.806 57.2036C201.05 58.0166 202.424 58.4231 203.928 58.4231ZM239.001 61.2279C236.968 61.2279 235.098 60.7076 233.391 59.667C231.684 58.6344 230.322 57.2645 229.306 55.5572C228.289 53.8499 227.781 52.0207 227.781 50.0695V33.3623C227.781 33.0371 227.936 32.7404 228.245 32.4721C228.545 32.2119 228.899 32.0818 229.306 32.0818C229.712 32.0818 230.058 32.2119 230.342 32.4721C230.627 32.7404 230.769 33.0371 230.769 33.3623V50.0695C230.769 51.4922 231.135 52.8337 231.866 54.0938C232.598 55.354 233.586 56.3906 234.83 57.2036C236.066 58.0166 237.456 58.4231 239.001 58.4231C240.545 58.4231 241.927 58.0247 243.147 57.228C244.366 56.4393 245.342 55.4028 246.074 54.1182C246.805 52.8418 247.171 51.4922 247.171 50.0695V33.3013C247.171 32.9761 247.326 32.6916 247.635 32.4477C247.935 32.2038 248.289 32.0818 248.696 32.0818C249.143 32.0818 249.5 32.2038 249.769 32.4477C250.029 32.6916 250.159 32.9761 250.159 33.3013V50.0695C250.159 52.0613 249.651 53.9109 248.635 55.6182C247.618 57.3255 246.269 58.6873 244.586 59.7035C242.895 60.7198 241.033 61.2279 239.001 61.2279ZM265.354 60.8621C264.947 60.8621 264.602 60.7279 264.317 60.4596C264.033 60.1995 263.891 59.9068 263.891 59.5816V33.3013C263.891 32.9355 264.033 32.6387 264.317 32.4111C264.602 32.1916 264.947 32.0818 265.354 32.0818C265.801 32.0818 266.159 32.1916 266.427 32.4111C266.687 32.6387 266.817 32.9355 266.817 33.3013V36.4111C267.305 35.5981 267.935 34.8338 268.708 34.1184C269.48 33.4111 270.407 32.8339 271.488 32.3867C272.561 31.9396 273.789 31.716 275.171 31.716H277.366C277.732 31.716 278.037 31.8461 278.281 32.1062C278.525 32.3745 278.647 32.7119 278.647 33.1184C278.647 33.5249 278.525 33.8582 278.281 34.1184C278.037 34.3867 277.732 34.5208 277.366 34.5208H275.171C273.789 34.5208 272.46 34.8745 271.183 35.5818C269.899 36.2972 268.862 37.3135 268.073 38.6306C267.277 39.9557 266.878 41.5533 266.878 43.4232V59.5816C266.878 59.9068 266.736 60.1995 266.452 60.4596C266.167 60.7279 265.801 60.8621 265.354 60.8621ZM310.024 60.8621C309.618 60.8621 309.264 60.7482 308.963 60.5206C308.654 60.3011 308.5 59.9881 308.5 59.5816V17.5088C308.5 17.1023 308.654 16.7974 308.963 16.5942C309.264 16.3909 309.618 16.2893 310.024 16.2893C310.39 16.2893 310.736 16.3909 311.061 16.5942C311.386 16.7974 311.549 17.1023 311.549 17.5088V36.3501H330.146V17.5088C330.146 17.1023 330.301 16.7974 330.61 16.5942C330.91 16.3909 331.264 16.2893 331.67 16.2893C332.036 16.2893 332.382 16.3909 332.707 16.5942C333.032 16.7974 333.195 17.1023 333.195 17.5088V59.5816C333.195 59.9881 333.032 60.3011 332.707 60.5206C332.382 60.7482 332.036 60.8621 331.67 60.8621C331.264 60.8621 330.91 60.7482 330.61 60.5206C330.301 60.3011 330.146 59.9881 330.146 59.5816V39.1549H311.549V59.5816C311.549 59.9881 311.386 60.3011 311.061 60.5206C310.736 60.7482 310.39 60.8621 310.024 60.8621ZM357.78 61.2279C355.829 61.2279 354 60.6995 352.292 59.6426C350.585 58.5857 349.215 57.2036 348.183 55.4963C347.142 53.789 346.622 51.9394 346.622 49.9475V42.8744C346.622 40.8826 347.13 39.033 348.146 37.3257C349.162 35.6184 350.524 34.2566 352.231 33.2404C353.939 32.2241 355.788 31.716 357.78 31.716C359.813 31.716 361.674 32.2119 363.365 33.2038C365.048 34.2038 366.41 35.5452 367.451 37.2281C368.483 38.9192 368.999 40.8013 368.999 42.8744V49.9475C368.999 51.8987 368.483 53.7402 367.451 55.4719C366.41 57.1954 365.048 58.5857 363.365 59.6426C361.674 60.6995 359.813 61.2279 357.78 61.2279ZM357.78 58.4231C359.325 58.4231 360.707 58.0166 361.926 57.2036C363.146 56.3906 364.134 55.3337 364.89 54.0329C365.638 52.7321 366.012 51.3703 366.012 49.9475V42.8744C366.012 41.4517 365.646 40.1102 364.914 38.8501C364.182 37.5899 363.199 36.5533 361.963 35.7403C360.719 34.9273 359.325 34.5208 357.78 34.5208C356.235 34.5208 354.853 34.9273 353.634 35.7403C352.414 36.5533 351.439 37.5899 350.707 38.8501C349.975 40.1102 349.609 41.4517 349.609 42.8744V49.9475C349.609 51.3703 349.975 52.7321 350.707 54.0329C351.439 55.3337 352.426 56.3906 353.67 57.2036C354.906 58.0166 356.276 58.4231 357.78 58.4231ZM383.902 60.8621C383.495 60.8621 383.15 60.7279 382.865 60.4596C382.581 60.1995 382.438 59.9068 382.438 59.5816V15.4356C382.438 15.0291 382.581 14.7161 382.865 14.4966C383.15 14.269 383.495 14.1552 383.902 14.1552C384.349 14.1552 384.715 14.269 384.999 14.4966C385.284 14.7161 385.426 15.0291 385.426 15.4356V59.5816C385.426 59.9068 385.284 60.1995 384.999 60.4596C384.715 60.7279 384.349 60.8621 383.902 60.8621ZM401.475 60.8621C401.068 60.8621 400.723 60.7279 400.438 60.4596C400.154 60.1995 400.011 59.9068 400.011 59.5816V33.3013C400.011 32.9355 400.154 32.6387 400.438 32.4111C400.723 32.1916 401.068 32.0818 401.475 32.0818C401.922 32.0818 402.288 32.1916 402.572 32.4111C402.857 32.6387 402.999 32.9355 402.999 33.3013V59.5816C402.999 59.9068 402.857 60.1995 402.572 60.4596C402.288 60.7279 401.922 60.8621 401.475 60.8621ZM401.475 22.9965C400.865 22.9965 400.324 22.773 399.853 22.3258C399.389 21.8787 399.158 21.3502 399.158 20.7405C399.158 20.1307 399.389 19.6226 399.853 19.2161C400.324 18.8096 400.865 18.6063 401.475 18.6063C402.125 18.6063 402.662 18.8096 403.085 19.2161C403.515 19.6226 403.731 20.1307 403.731 20.7405C403.731 21.3502 403.515 21.8787 403.085 22.3258C402.662 22.773 402.125 22.9965 401.475 22.9965ZM426.792 61.2279C424.881 61.2279 423.092 60.6995 421.426 59.6426C419.759 58.5857 418.43 57.1954 417.438 55.4719C416.438 53.7402 415.938 51.8987 415.938 49.9475V42.8744C415.938 40.8013 416.438 38.9192 417.438 37.2281C418.43 35.5452 419.759 34.2038 421.426 33.2038C423.092 32.2119 424.922 31.716 426.914 31.716C428.946 31.716 430.645 32.1916 432.011 33.1428C433.369 34.1021 434.373 35.1712 435.023 36.3501V15.4356C435.023 15.0291 435.178 14.7161 435.487 14.4966C435.787 14.269 436.141 14.1552 436.548 14.1552C436.995 14.1552 437.353 14.269 437.621 14.4966C437.881 14.7161 438.011 15.0291 438.011 15.4356V59.5816C438.011 59.9068 437.881 60.1995 437.621 60.4596C437.353 60.7279 436.995 60.8621 436.548 60.8621C436.182 60.8621 435.848 60.7279 435.548 60.4596C435.239 60.1995 435.084 59.9068 435.084 59.5816V56.5938C434.474 57.854 433.409 58.9393 431.889 59.8499C430.361 60.7686 428.662 61.2279 426.792 61.2279ZM427.036 58.4231C428.58 58.4231 429.954 58.0247 431.157 57.228C432.353 56.4393 433.296 55.5369 433.987 54.5207C434.678 53.5044 435.023 52.6711 435.023 52.0207V42.8744C435.023 41.1265 434.637 39.6305 433.865 38.3866C433.092 37.1509 432.109 36.1956 430.914 35.5208C429.71 34.8542 428.438 34.5208 427.096 34.5208C425.633 34.5208 424.284 34.9273 423.048 35.7403C421.804 36.5533 420.808 37.5899 420.06 38.8501C419.304 40.1102 418.926 41.4517 418.926 42.8744V49.9475C418.926 51.3703 419.304 52.7321 420.06 54.0329C420.808 55.3337 421.792 56.3906 423.011 57.2036C424.231 58.0166 425.572 58.4231 427.036 58.4231ZM458.584 61.2279C456.226 61.2279 454.234 60.5653 452.608 59.2401C450.982 57.9231 450.169 55.9028 450.169 53.1792C450.169 51.0248 450.767 49.3581 451.962 48.1792C453.165 47.0004 454.832 46.1752 456.962 45.7037C459.1 45.2402 461.572 45.0085 464.377 45.0085H467.669V43.4232C467.669 42.0004 467.413 40.598 466.901 39.2159C466.397 37.8338 465.584 36.6956 464.462 35.8013C463.348 34.907 461.856 34.4599 459.986 34.4599C458.686 34.4599 457.617 34.5899 456.779 34.8501C455.95 35.1184 455.279 35.4029 454.767 35.7037C454.263 36.0127 453.869 36.1672 453.584 36.1672C453.178 36.1672 452.852 35.972 452.608 35.5818C452.365 35.1997 452.243 34.846 452.243 34.5208C452.243 34.033 452.637 33.5737 453.426 33.1428C454.222 32.72 455.23 32.3745 456.45 32.1062C457.669 31.8461 458.889 31.716 460.108 31.716C462.751 31.716 464.832 32.2729 466.352 33.3867C467.881 34.5086 468.978 35.9517 469.645 37.7159C470.32 39.4883 470.657 41.3907 470.657 43.4232V59.5816C470.657 59.9068 470.523 60.1995 470.255 60.4596C469.995 60.7279 469.641 60.8621 469.194 60.8621C468.787 60.8621 468.442 60.7279 468.157 60.4596C467.873 60.1995 467.73 59.9068 467.73 59.5816V56.5938C466.714 57.7727 465.442 58.8377 463.913 59.7889C462.393 60.7482 460.617 61.2279 458.584 61.2279ZM459.011 58.545C460.434 58.545 461.804 58.1873 463.121 57.4719C464.446 56.7645 465.535 55.8906 466.389 54.8499C467.242 53.8174 467.669 52.854 467.669 51.9597V47.4475H464.682C462.69 47.4475 460.82 47.5573 459.072 47.7768C457.324 48.0045 455.901 48.5166 454.804 49.3134C453.706 50.102 453.157 51.35 453.157 53.0573C453.157 54.9678 453.726 56.358 454.865 57.228C456.003 58.106 457.385 58.545 459.011 58.545ZM482.437 75.1912C482.072 75.1912 481.746 75.0693 481.462 74.8254C481.177 74.5815 481.035 74.2359 481.035 73.7888C481.035 73.4229 481.116 73.0977 481.279 72.8132C481.442 72.5286 481.726 72.3864 482.133 72.3864C483.149 72.3864 484.092 72.0327 484.962 71.3254C485.84 70.6099 486.653 69.6343 487.401 68.3986C488.157 67.1547 488.828 65.801 489.413 64.3376C490.007 62.8742 490.527 61.3905 490.974 59.8865L481.096 33.6062C481.015 33.403 480.974 33.2404 480.974 33.1184C480.974 32.8339 481.064 32.59 481.242 32.3867C481.429 32.1835 481.653 32.0087 481.913 31.8623C482.181 31.7241 482.458 31.655 482.742 31.655C482.986 31.655 483.23 31.7241 483.474 31.8623C483.718 32.0087 483.86 32.2038 483.901 32.4477L492.498 55.9231L500.852 32.4477C500.974 32.2038 501.137 32.0087 501.34 31.8623C501.543 31.7241 501.767 31.655 502.011 31.655C502.295 31.655 502.567 31.716 502.828 31.8379C503.096 31.9599 503.319 32.1306 503.498 32.3501C503.685 32.5778 503.779 32.8339 503.779 33.1184C503.779 33.3217 503.738 33.4843 503.657 33.6062L494.023 59.8865C493.494 61.4718 492.885 63.1507 492.193 64.923C491.502 66.6872 490.698 68.3417 489.779 69.8864C488.868 71.4311 487.811 72.7034 486.608 73.7034C485.413 74.6953 484.023 75.1912 482.437 75.1912ZM535.51 60.8621C535.104 60.8621 534.75 60.7482 534.449 60.5206C534.14 60.3011 533.986 59.9881 533.986 59.5816V17.7527C533.986 17.1836 534.14 16.7974 534.449 16.5942C534.75 16.3909 535.104 16.2893 535.51 16.2893C535.876 16.2893 536.213 16.4194 536.522 16.6795C536.823 16.9478 537.108 17.273 537.376 17.6551C537.636 18.0454 537.848 18.4234 538.01 18.7893L549.169 40.6183L560.449 18.7893C560.652 18.4234 560.876 18.0454 561.12 17.6551C561.364 17.273 561.648 16.9478 561.973 16.6795C562.299 16.4194 562.624 16.2893 562.949 16.2893C563.396 16.2893 563.762 16.3909 564.047 16.5942C564.331 16.7974 564.473 17.1836 564.473 17.7527V59.5816C564.473 59.9881 564.323 60.3011 564.022 60.5206C563.713 60.7482 563.356 60.8621 562.949 60.8621C562.583 60.8621 562.238 60.7482 561.912 60.5206C561.587 60.3011 561.425 59.9881 561.425 59.5816V23.2404L550.571 43.972C550.368 44.4191 550.144 44.7321 549.9 44.911C549.656 45.098 549.413 45.1915 549.169 45.1915C548.965 45.1915 548.742 45.098 548.498 44.911C548.254 44.7321 548.03 44.4191 547.827 43.972L537.035 23.1185V59.5816C537.035 59.9881 536.872 60.3011 536.547 60.5206C536.222 60.7482 535.876 60.8621 535.51 60.8621ZM590.717 61.2279C588.237 61.2279 586.05 60.7604 584.156 59.8255C582.27 58.8905 580.778 57.5775 579.681 55.8865C578.583 54.2036 578.034 52.2239 578.034 49.9475V42.6915C578.034 40.6996 578.55 38.8704 579.583 37.2037C580.624 35.5371 581.985 34.2038 583.668 33.2038C585.359 32.2119 587.221 31.716 589.254 31.716C591.245 31.716 593.075 32.1916 594.741 33.1428C596.408 34.1021 597.758 35.4029 598.79 37.0452C599.831 38.6956 600.351 40.598 600.351 42.7525C600.351 44.2565 600.095 45.3419 599.583 46.0085C599.079 46.6833 598.441 47.0898 597.668 47.228C596.896 47.3744 596.063 47.4475 595.168 47.4475H581.022V50.0085C581.022 52.6101 581.957 54.6711 583.827 56.1914C585.697 57.7198 588.034 58.484 590.839 58.484C592.506 58.484 593.786 58.2808 594.68 57.8743C595.575 57.4678 596.266 57.0613 596.754 56.6548C597.241 56.2483 597.689 56.045 598.095 56.045C598.38 56.045 598.623 56.1263 598.827 56.2889C599.03 56.4515 599.193 56.6426 599.315 56.8621C599.436 57.0897 599.497 57.3052 599.497 57.5084C599.497 57.9149 599.14 58.4231 598.424 59.0328C597.717 59.6426 596.713 60.1588 595.412 60.5816C594.111 61.0125 592.546 61.2279 590.717 61.2279ZM581.022 42.4476V44.9476H594.01C595.392 44.9476 596.306 44.8053 596.754 44.5207C597.201 44.2362 597.424 43.6468 597.424 42.7525C597.424 41.3704 597.087 40.037 596.412 38.7525C595.745 37.4761 594.79 36.4314 593.546 35.6184C592.311 34.8054 590.88 34.3989 589.254 34.3989C587.709 34.3989 586.315 34.7647 585.071 35.4964C583.835 36.2281 582.851 37.2037 582.12 38.4232C581.388 39.6427 581.022 40.9842 581.022 42.4476ZM614.083 60.8621C613.676 60.8621 613.331 60.7279 613.046 60.4596C612.762 60.1995 612.619 59.9068 612.619 59.5816V33.3013C612.619 32.9355 612.762 32.6387 613.046 32.4111C613.331 32.1916 613.676 32.0818 614.083 32.0818C614.53 32.0818 614.888 32.1916 615.156 32.4111C615.416 32.6387 615.546 32.9355 615.546 33.3013V36.3501C616.237 35.1712 617.266 34.1021 618.631 33.1428C619.989 32.1916 621.684 31.716 623.717 31.716C625.79 31.716 627.611 32.2851 629.18 33.4233C630.741 34.5615 631.887 36.0249 632.619 37.8135C633.676 35.7403 635.05 34.2038 636.741 33.2038C638.424 32.2119 640.139 31.716 641.887 31.716C643.635 31.716 645.273 32.1428 646.802 32.9965C648.322 33.8501 649.57 35.1103 650.546 36.7769C651.521 38.4436 652.009 40.4761 652.009 42.8744V59.5816C652.009 59.9068 651.867 60.1995 651.582 60.4596C651.298 60.7279 650.932 60.8621 650.485 60.8621C650.078 60.8621 649.733 60.7279 649.448 60.4596C649.164 60.1995 649.021 59.9068 649.021 59.5816V42.8744C649.021 41.0452 648.647 39.5086 647.9 38.2647C647.143 37.0289 646.196 36.094 645.058 35.4598C643.92 34.8338 642.741 34.5208 641.521 34.5208C640.221 34.5208 638.993 34.8542 637.839 35.5208C636.676 36.1956 635.721 37.1306 634.973 38.3257C634.217 39.5289 633.839 40.9435 633.839 42.5695V59.6426C633.839 60.0491 633.676 60.3539 633.351 60.5572C633.026 60.7604 632.68 60.8621 632.314 60.8621C631.948 60.8621 631.615 60.7604 631.314 60.5572C631.005 60.3539 630.851 60.0491 630.851 59.6426V42.6305C630.851 41.0452 630.505 39.6509 629.814 38.4476C629.123 37.2525 628.229 36.2972 627.131 35.5818C626.034 34.8745 624.794 34.5208 623.412 34.5208C622.152 34.5208 620.924 34.8542 619.729 35.5208C618.526 36.1956 617.538 37.1428 616.766 38.3623C615.993 39.5818 615.607 41.0858 615.607 42.8744V59.5816C615.607 59.9068 615.465 60.1995 615.18 60.4596C614.896 60.7279 614.53 60.8621 614.083 60.8621ZM675.802 61.2279C673.851 61.2279 672.021 60.6995 670.314 59.6426C668.607 58.5857 667.237 57.2036 666.204 55.4963C665.164 53.789 664.643 51.9394 664.643 49.9475V42.8744C664.643 40.8826 665.151 39.033 666.168 37.3257C667.184 35.6184 668.546 34.2566 670.253 33.2404C671.96 32.2241 673.81 31.716 675.802 31.716C677.834 31.716 679.696 32.2119 681.387 33.2038C683.07 34.2038 684.432 35.5452 685.472 37.2281C686.505 38.9192 687.021 40.8013 687.021 42.8744V49.9475C687.021 51.8987 686.505 53.7402 685.472 55.4719C684.432 57.1954 683.07 58.5857 681.387 59.6426C679.696 60.6995 677.834 61.2279 675.802 61.2279ZM675.802 58.4231C677.346 58.4231 678.728 58.0166 679.948 57.2036C681.167 56.3906 682.155 55.3337 682.911 54.0329C683.659 52.7321 684.033 51.3703 684.033 49.9475V42.8744C684.033 41.4517 683.667 40.1102 682.936 38.8501C682.204 37.5899 681.22 36.5533 679.985 35.7403C678.741 34.9273 677.346 34.5208 675.802 34.5208C674.257 34.5208 672.875 34.9273 671.655 35.7403C670.436 36.5533 669.46 37.5899 668.729 38.8501C667.997 40.1102 667.631 41.4517 667.631 42.8744V49.9475C667.631 51.3703 667.997 52.7321 668.729 54.0329C669.46 55.3337 670.448 56.3906 671.692 57.2036C672.928 58.0166 674.298 58.4231 675.802 58.4231ZM701.375 60.8621C700.968 60.8621 700.623 60.7279 700.338 60.4596C700.054 60.1995 699.911 59.9068 699.911 59.5816V33.3013C699.911 32.9355 700.054 32.6387 700.338 32.4111C700.623 32.1916 700.968 32.0818 701.375 32.0818C701.822 32.0818 702.175 32.1916 702.436 32.4111C702.704 32.6387 702.838 32.9355 702.838 33.3013V36.4111C703.326 35.5981 703.956 34.8338 704.728 34.1184C705.501 33.4111 706.423 32.8339 707.497 32.3867C708.578 31.9396 709.81 31.716 711.192 31.716H713.387C713.753 31.716 714.057 31.8461 714.301 32.1062C714.545 32.3745 714.667 32.7119 714.667 33.1184C714.667 33.5249 714.545 33.8582 714.301 34.1184C714.057 34.3867 713.753 34.5208 713.387 34.5208H711.192C709.81 34.5208 708.476 34.8745 707.192 35.5818C705.915 36.2972 704.879 37.3135 704.082 38.6306C703.293 39.9557 702.899 41.5533 702.899 43.4232V59.5816C702.899 59.9068 702.757 60.1995 702.472 60.4596C702.188 60.7279 701.822 60.8621 701.375 60.8621ZM730.228 61.2279C727.87 61.2279 725.878 60.5653 724.252 59.2401C722.626 57.9231 721.813 55.9028 721.813 53.1792C721.813 51.0248 722.411 49.3581 723.606 48.1792C724.809 47.0004 726.476 46.1752 728.606 45.7037C730.744 45.2402 733.216 45.0085 736.021 45.0085H739.313V43.4232C739.313 42.0004 739.057 40.598 738.545 39.2159C738.041 37.8338 737.228 36.6956 736.106 35.8013C734.992 34.907 733.5 34.4599 731.63 34.4599C730.33 34.4599 729.261 34.5899 728.423 34.8501C727.594 35.1184 726.923 35.4029 726.411 35.7037C725.907 36.0127 725.513 36.1672 725.228 36.1672C724.822 36.1672 724.496 35.972 724.252 35.5818C724.009 35.1997 723.887 34.846 723.887 34.5208C723.887 34.033 724.281 33.5737 725.07 33.1428C725.866 32.72 726.874 32.3745 728.094 32.1062C729.313 31.8461 730.533 31.716 731.752 31.716C734.395 31.716 736.476 32.2729 737.996 33.3867C739.525 34.5086 740.622 35.9517 741.289 37.7159C741.964 39.4883 742.301 41.3907 742.301 43.4232V59.5816C742.301 59.9068 742.167 60.1995 741.899 60.4596C741.638 60.7279 741.285 60.8621 740.838 60.8621C740.431 60.8621 740.086 60.7279 739.801 60.4596C739.517 60.1995 739.374 59.9068 739.374 59.5816V56.5938C738.358 57.7727 737.086 58.8377 735.557 59.7889C734.037 60.7482 732.261 61.2279 730.228 61.2279ZM730.655 58.545C732.078 58.545 733.448 58.1873 734.765 57.4719C736.09 56.7645 737.179 55.8906 738.033 54.8499C738.887 53.8174 739.313 52.854 739.313 51.9597V47.4475H736.326C734.334 47.4475 732.464 47.5573 730.716 47.7768C728.968 48.0045 727.545 48.5166 726.448 49.3134C725.35 50.102 724.801 51.35 724.801 53.0573C724.801 54.9678 725.37 56.358 726.509 57.228C727.647 58.106 729.029 58.545 730.655 58.545ZM767.374 61.2279C765.464 61.2279 763.768 60.7686 762.289 59.8499C760.801 58.9393 759.712 57.854 759.021 56.5938V59.5816C759.021 59.9068 758.89 60.1995 758.63 60.4596C758.362 60.7279 758.004 60.8621 757.557 60.8621C757.151 60.8621 756.805 60.7279 756.521 60.4596C756.236 60.1995 756.094 59.9068 756.094 59.5816V15.4356C756.094 15.0291 756.236 14.7161 756.521 14.4966C756.805 14.269 757.151 14.1552 757.557 14.1552C758.004 14.1552 758.37 14.269 758.655 14.4966C758.939 14.7161 759.081 15.0291 759.081 15.4356V36.3501C759.773 35.1712 760.801 34.1021 762.167 33.1428C763.525 32.1916 765.199 31.716 767.191 31.716C769.183 31.716 771.012 32.2119 772.679 33.2038C774.346 34.2038 775.679 35.5452 776.679 37.2281C777.671 38.9192 778.167 40.8013 778.167 42.8744V49.9475C778.167 51.8987 777.671 53.7402 776.679 55.4719C775.679 57.1954 774.358 58.5857 772.715 59.6426C771.065 60.6995 769.285 61.2279 767.374 61.2279ZM767.069 58.4231C768.533 58.4231 769.874 58.0166 771.094 57.2036C772.313 56.3906 773.301 55.3337 774.057 54.0329C774.805 52.7321 775.179 51.3703 775.179 49.9475V42.8744C775.179 41.4517 774.805 40.1102 774.057 38.8501C773.301 37.5899 772.313 36.5533 771.094 35.7403C769.874 34.9273 768.512 34.5208 767.008 34.5208C765.707 34.5208 764.447 34.8542 763.228 35.5208C762.008 36.1956 761.012 37.1509 760.24 38.3866C759.468 39.6305 759.081 41.1265 759.081 42.8744V52.0207C759.081 52.6711 759.439 53.5044 760.155 54.5207C760.862 55.5369 761.817 56.4393 763.02 57.228C764.216 58.0247 765.565 58.4231 767.069 58.4231ZM793.13 60.8621C792.723 60.8621 792.378 60.7279 792.093 60.4596C791.809 60.1995 791.667 59.9068 791.667 59.5816V15.4356C791.667 15.0291 791.809 14.7161 792.093 14.4966C792.378 14.269 792.723 14.1552 793.13 14.1552C793.577 14.1552 793.943 14.269 794.228 14.4966C794.512 14.7161 794.654 15.0291 794.654 15.4356V59.5816C794.654 59.9068 794.512 60.1995 794.228 60.4596C793.943 60.7279 793.577 60.8621 793.13 60.8621ZM820.886 61.2279C818.406 61.2279 816.219 60.7604 814.325 59.8255C812.439 58.8905 810.947 57.5775 809.849 55.8865C808.752 54.2036 808.203 52.2239 808.203 49.9475V42.6915C808.203 40.6996 808.719 38.8704 809.752 37.2037C810.792 35.5371 812.154 34.2038 813.837 33.2038C815.528 32.2119 817.39 31.716 819.422 31.716C821.414 31.716 823.243 32.1916 824.91 33.1428C826.577 34.1021 827.926 35.4029 828.959 37.0452C830 38.6956 830.52 40.598 830.52 42.7525C830.52 44.2565 830.264 45.3419 829.752 46.0085C829.248 46.6833 828.609 47.0898 827.837 47.228C827.065 47.3744 826.231 47.4475 825.337 47.4475H811.191V50.0085C811.191 52.6101 812.126 54.6711 813.996 56.1914C815.866 57.7198 818.203 58.484 821.008 58.484C822.674 58.484 823.955 58.2808 824.849 57.8743C825.743 57.4678 826.435 57.0613 826.922 56.6548C827.41 56.2483 827.857 56.045 828.264 56.045C828.548 56.045 828.792 56.1263 828.996 56.2889C829.199 56.4515 829.361 56.6426 829.483 56.8621C829.605 57.0897 829.666 57.3052 829.666 57.5084C829.666 57.9149 829.309 58.4231 828.593 59.0328C827.886 59.6426 826.882 60.1588 825.581 60.5816C824.28 61.0125 822.715 61.2279 820.886 61.2279ZM811.191 42.4476V44.9476H824.178C825.561 44.9476 826.475 44.8053 826.922 44.5207C827.369 44.2362 827.593 43.6468 827.593 42.7525C827.593 41.3704 827.256 40.037 826.581 38.7525C825.914 37.4761 824.959 36.4314 823.715 35.6184C822.479 34.8054 821.048 34.3989 819.422 34.3989C817.878 34.3989 816.483 34.7647 815.24 35.4964C814.004 36.2281 813.02 37.2037 812.288 38.4232C811.557 39.6427 811.191 40.9842 811.191 42.4476Z" fill="#3D3E48"/>
</g>
</g>
<defs>
<clipPath id="clip0_34_24">
<rect width="830.346" height="61.0362" fill="white"/>
</clipPath>
<clipPath id="clip1_34_24">
<rect width="830.346" height="61.0362" fill="white"/>
</clipPath>
</defs>
</svg>
