<svg width="70" height="70" viewBox="0 0 70 70" fill="none" xmlns="http://www.w3.org/2000/svg">
<g clip-path="url(#clip0_6_4)">
<path d="M27.5 22.5C30.8137 22.5 33.5 19.8137 33.5 16.5C33.5 13.1863 30.8137 10.5 27.5 10.5C24.1863 10.5 21.5 13.1863 21.5 16.5C21.5 19.8137 24.1863 22.5 27.5 22.5Z" fill="#FFBF69"/>
<path d="M28.5 3V4.5M18.96 6.96L20.01 8.01M15 16.5H16.5M18.96 26.04L20.01 24.99M28.5 30V28.5M38.04 26.04L36.99 24.99M42 16.5H40.5M38.04 6.96L36.99 8.01M28.5 10.5C27.3133 10.5 26.1533 10.8519 25.1666 11.5112C24.1799 12.1705 23.4108 13.1075 22.9567 14.2039C22.5026 15.3003 22.3838 16.5067 22.6153 17.6705C22.8468 18.8344 23.4182 19.9035 24.2574 20.7426C25.0965 21.5818 26.1656 22.1532 27.3295 22.3847C28.4933 22.6162 29.6997 22.4974 30.7961 22.0433C31.8925 21.5892 32.8295 20.8201 33.4888 19.8334C34.1481 18.8467 34.5 17.6867 34.5 16.5C34.5 14.9087 33.8679 13.3826 32.7426 12.2574C31.6174 11.1321 30.0913 10.5 28.5 10.5Z" stroke="#FF9F1C" stroke-width="2" stroke-linecap="round" stroke-linejoin="round"/>
<rect x="27" y="27" width="4" height="6" fill="white"/>
<path d="M64.7009 66.8149H47.6282C46.6078 66.8149 45.7803 65.9875 45.7803 64.967C45.7803 63.9465 46.6077 63.1191 47.6282 63.1191H64.701C65.2469 63.1191 65.7332 62.8584 66.0354 62.4038C66.3372 61.9492 66.3892 61.4 66.1778 60.897L45.8657 12.5567C45.8601 12.5435 45.8545 12.53 45.8493 12.5164C45.6248 11.9447 45.1246 11.883 44.9201 11.883C44.7155 11.883 44.2153 11.9447 43.9908 12.5164L35.9687 32.9365C35.5956 33.8864 34.5232 34.3541 33.5731 33.9808C32.6232 33.6075 32.1556 32.5352 32.5289 31.5852L40.551 11.1651C41.2616 9.35604 42.9766 8.18737 44.9202 8.18737C46.8556 8.18737 48.5644 9.34647 49.2806 11.1428L69.5851 59.4653C70.2742 61.1047 70.0977 62.9679 69.1136 64.4491C68.1289 65.9305 66.4794 66.8149 64.7009 66.8149Z" fill="#43B97F"/>
<path d="M5.30206 64.967C2.7427 64.967 1.07446 62.2776 2.21182 59.9847L18.4233 27.2998C19.4319 25.0669 22.6029 25.0669 23.6115 27.2998L39.823 59.9847C40.9604 62.2776 39.2921 64.967 36.7328 64.967H5.30206Z" fill="#9DFFCF"/>
<path d="M36.7323 66.8149H5.30202C3.45605 66.8149 1.77305 65.8784 0.800297 64.3097C-0.172726 62.7411 -0.263917 60.8175 0.556529 59.1637L16.7545 26.5053C17.5304 24.8216 19.1603 23.7773 21.0171 23.7773C22.8739 23.7773 24.5037 24.8216 25.2797 26.5053L41.4781 59.1637C42.2981 60.8173 42.2069 62.7411 41.234 64.3099C40.2611 65.8784 38.5781 66.8149 36.7323 66.8149ZM21.0172 27.4731C20.8234 27.4731 20.3466 27.5304 20.1072 28.0606C20.0979 28.081 20.0884 28.1011 20.0788 28.121L3.86716 60.806C3.50937 61.5266 3.79948 62.1342 3.94071 62.362C4.08194 62.5897 4.49743 63.1194 5.30188 63.1194H36.7322C37.5368 63.1194 37.9522 62.5897 38.0933 62.3618C38.2347 62.1342 38.5247 61.5266 38.167 60.806L21.9559 28.1209C21.9461 28.1011 21.9367 28.0808 21.9275 28.0606C21.6878 27.5301 21.2111 27.4731 21.0172 27.4731Z" fill="#43B97F"/>
<path d="M53.6093 27.2165L47.5689 11.8409C46.6231 9.43356 43.2162 9.43356 42.2704 11.8409L38.1479 22.3343L40.7292 30.8443L45.1642 25.625L50.5229 33.308L53.6093 27.2165Z" fill="#9DFFCF"/>
<path d="M50.5226 35.1557C49.9215 35.1557 49.3544 34.8625 49.0074 34.3651L45.0201 28.6483L42.1371 32.0407C41.6994 32.5559 41.0159 32.7912 40.3531 32.6532C39.691 32.5156 39.157 32.0273 38.9609 31.3802L36.3799 22.8706C36.2592 22.4728 36.276 22.0458 36.4283 21.6586L40.5508 11.1652C41.2615 9.35617 42.9765 8.18751 44.92 8.18751C46.8636 8.18751 48.5785 9.35631 49.2893 11.1652L55.3296 26.5407C55.5224 27.0312 55.4963 27.5813 55.258 28.0514L52.1716 34.1429C51.8778 34.7227 51.3011 35.1057 50.6526 35.1511C50.6089 35.1544 50.5657 35.1557 50.5226 35.1557ZM45.1641 23.7772C45.1935 23.7772 45.2226 23.7779 45.2524 23.7794C45.8248 23.8066 46.352 24.098 46.68 24.568L50.2712 29.7168L51.5867 27.1207L45.8493 12.5167C45.6248 11.9449 45.1246 11.8833 44.92 11.8833C44.7155 11.8833 44.2153 11.9449 43.9908 12.5167L40.1032 22.4128L41.5148 27.0671L43.7567 24.4289C44.1081 24.0143 44.6235 23.7772 45.1641 23.7772Z" fill="#43B97F"/>
</g>
<defs>
<clipPath id="clip0_6_4">
<rect width="70" height="70" fill="white"/>
</clipPath>
</defs>
</svg>
