<svg width="835" height="184" viewBox="0 0 835 184" fill="none" xmlns="http://www.w3.org/2000/svg">
<g clip-path="url(#clip0_16_4)">
<g clip-path="url(#clip1_16_4)">
<g clip-path="url(#clip2_16_4)">
<g clip-path="url(#clip3_16_4)">
<g clip-path="url(#clip4_16_4)">
<g clip-path="url(#clip5_16_4)">
<g clip-path="url(#clip6_16_4)">
<path d="M34.8514 99.441C28.3327 99.441 22.6077 98.7743 17.6764 97.441C12.7451 96.1288 8.97781 94.5203 6.37458 92.6155C3.75019 90.6895 2.43799 88.88 2.43799 87.1868C2.43799 85.8323 2.94594 84.1814 3.96183 82.2343C4.95656 80.266 6.15235 78.5729 7.54921 77.1548C8.94606 75.7368 10.1101 75.0278 11.0413 75.0278C11.6128 75.0278 12.8297 75.5146 14.6922 76.4882C17.4859 77.9273 20.1315 79.0914 22.6289 79.9803C25.1475 80.848 28.0258 81.2819 31.264 81.2819C34.8831 81.2819 37.952 80.5729 40.4706 79.1549C42.968 77.7369 44.2167 75.25 44.2167 71.6944C44.2167 69.6203 43.5711 67.8319 42.2801 66.3292C40.9891 64.8265 39.3382 63.5672 37.3276 62.5513C35.317 61.5143 32.5762 60.2973 29.1052 58.9005L22.9781 56.2655C19.2532 54.4454 16.0679 52.4559 13.4223 50.2971C10.7556 48.1172 8.58627 45.2494 6.91427 41.6938C5.22112 38.117 4.37454 33.7465 4.37454 28.5824C4.37454 22.2753 5.93013 17.0371 9.0413 12.8677C12.1313 8.67717 16.1632 5.59774 21.1368 3.62945C26.0893 1.66115 31.4122 0.677002 37.1054 0.677002C41.7404 0.677002 45.9416 1.1532 49.7088 2.1056C53.4973 3.07917 56.4603 4.30671 58.5979 5.78822C60.7355 7.2909 61.8043 8.79358 61.8043 10.2963C61.8043 11.545 61.4022 13.1323 60.598 15.0583C59.8149 17.0054 58.8201 18.6986 57.6138 20.1377C56.4286 21.5769 55.328 22.2965 54.3121 22.2965C53.8465 22.2965 53.0105 22.0425 51.8041 21.5346C49.8993 20.7515 47.9839 20.1166 46.058 19.6298C44.1108 19.143 41.7404 18.8996 38.9467 18.8996C34.1424 18.8996 30.809 19.6615 28.9465 21.1854C27.084 22.7092 26.1528 24.5082 26.1528 26.5823C26.1528 28.9527 26.7877 30.9422 28.0576 32.5507C29.3275 34.138 30.9254 35.4502 32.8513 36.4873C34.7985 37.5244 37.5075 38.7201 40.9785 40.0747C46.185 42.2758 50.439 44.3711 53.7407 46.3605C57.0635 48.35 59.9207 51.2072 62.3123 54.9321C64.725 58.6571 65.9314 63.4085 65.9314 69.1864C65.9314 76.2765 64.4393 82.0862 61.4551 86.6154C58.4921 91.1234 54.6719 94.3827 49.9946 96.3933C45.3172 98.4251 40.2695 99.441 34.8514 99.441ZM117.393 99.441C109.012 99.441 101.837 98.1183 95.8686 95.4727C89.9002 92.8483 85.3392 89.0387 82.1857 84.0439C79.0322 79.0491 77.4555 73.0383 77.4555 66.0117V5.94696C77.4555 4.44428 78.1327 3.32256 79.4873 2.58181C80.8206 1.84105 82.9053 1.47067 85.7414 1.47067H90.4081C93.2442 1.47067 95.3183 1.84105 96.6305 2.58181C97.9638 3.32256 98.6305 4.44428 98.6305 5.94696V64.6149C98.6305 67.8319 99.4136 70.6997 100.98 73.2182C102.567 75.758 104.779 77.7369 107.615 79.1549C110.451 80.5729 113.71 81.2819 117.393 81.2819C121.054 81.2819 124.314 80.5729 127.171 79.1549C130.049 77.7369 132.293 75.758 133.901 73.2182C135.488 70.6997 136.282 67.8319 136.282 64.6149V5.94696C136.282 4.44428 136.949 3.32256 138.282 2.58181C139.594 1.84105 141.668 1.47067 144.505 1.47067H149.076C151.912 1.47067 153.997 1.84105 155.33 2.58181C156.642 3.32256 157.298 4.44428 157.298 5.94696V66.0117C157.298 73.0383 155.722 79.0491 152.568 84.0439C149.415 89.0387 144.854 92.8483 138.885 95.4727C132.917 98.1183 125.753 99.441 117.393 99.441ZM184.251 98.4886C178.727 98.4886 175.966 97.0494 175.966 94.1711V7.28032C175.966 5.35435 176.41 3.96808 177.299 3.1215C178.167 2.27492 179.553 1.85163 181.458 1.85163H210.442C219.035 1.85163 226.633 3.94691 233.237 8.13748C239.861 12.3069 243.173 20.2647 243.173 32.011C243.173 40.0535 241.258 46.3182 237.427 50.8051C233.596 55.2708 229.3 58.2761 224.538 59.8211C219.755 61.3661 215.501 62.1386 211.776 62.1386H197.204V94.1711C197.204 97.0494 194.442 98.4886 188.918 98.4886H184.251ZM197.204 43.9478H209.458C212.76 43.9478 215.585 43.0694 217.935 41.3128C220.284 39.5561 221.459 36.4555 221.459 32.011C221.459 27.503 220.273 24.3495 217.903 22.5505C215.533 20.7303 212.718 19.8203 209.458 19.8203H197.204V43.9478ZM260.063 98.2664C258.137 98.2664 256.74 97.8219 255.872 96.933C254.983 96.0653 254.539 94.679 254.539 92.7742V7.28032C254.539 5.35435 254.983 3.96808 255.872 3.1215C256.74 2.27492 258.137 1.85163 260.063 1.85163H310.508C311.947 1.85163 312.995 2.39132 313.651 3.47071C314.286 4.5501 314.603 6.30675 314.603 8.74066V12.9312C314.603 15.3652 314.286 17.1218 313.651 18.2012C312.995 19.2806 311.947 19.8203 310.508 19.8203H275.777V39.8207H306.794C308.233 39.8207 309.281 40.3604 309.937 41.4398C310.572 42.5403 310.889 44.297 310.889 46.7097V50.9955C310.889 53.4083 310.572 55.1649 309.937 56.2655C309.281 57.3449 308.233 57.8846 306.794 57.8846H275.777V80.2025H310.572C312.032 80.2025 313.08 80.7422 313.715 81.8216C314.371 82.9222 314.699 84.6576 314.699 87.0281V91.3774C314.699 93.7901 314.371 95.5468 313.715 96.6473C313.08 97.7267 312.032 98.2664 310.572 98.2664H260.063ZM338.096 98.4886C332.572 98.4886 329.81 97.0494 329.81 94.1711V7.28032C329.81 5.35435 330.244 3.96808 331.112 3.1215C332.001 2.27492 333.397 1.85163 335.302 1.85163H362.192C385.028 1.85163 396.446 10.455 396.446 27.6617C396.446 32.8682 394.986 37.3656 392.065 41.1541C389.145 44.9213 385.24 47.7362 380.351 49.5987V50.1384C382.044 50.858 383.832 52.403 385.716 54.7734C387.6 57.165 389.113 59.8529 390.256 62.8371L402.415 93.1552C402.838 94.3827 403.05 95.261 403.05 95.7902C403.05 97.5891 400.309 98.4886 394.827 98.4886H389.176C384.584 98.4886 381.917 97.5362 381.176 95.6314L370.255 68.742C369.218 66.6678 368.224 65.0593 367.271 63.9165C366.319 62.7947 364.985 61.9376 363.271 61.345C361.578 60.7524 359.282 60.4561 356.382 60.4561H351.049V94.1711C351.049 97.0494 348.276 98.4886 342.731 98.4886H338.096ZM351.049 42.1382H364.065C365.927 42.1382 367.684 41.6091 369.335 40.5509C370.986 39.4926 372.298 38.064 373.271 36.2651C374.266 34.4449 374.763 32.4555 374.763 30.2967C374.763 27.1009 373.716 24.5505 371.621 22.6457C369.525 20.7621 366.7 19.8203 363.144 19.8203H351.049V42.1382ZM488.988 99.441C473.475 99.441 462.046 95.4092 454.702 87.3455C447.336 79.2819 443.654 66.7525 443.654 49.7574C443.654 17.0371 458.998 0.677002 489.687 0.677002C493.877 0.677002 498.279 1.08971 502.893 1.91512C507.528 2.74054 511.391 3.894 514.481 5.37551C517.592 6.85703 519.147 8.49728 519.147 10.2963C519.147 11.5873 518.629 13.2804 517.592 15.3757C516.555 17.471 515.338 19.3123 513.941 20.8997C512.544 22.5082 511.306 23.3124 510.227 23.3124C509.909 23.3124 509.158 23.0584 507.973 22.5505C505.391 21.5134 502.682 20.6457 499.845 19.9473C496.988 19.2488 493.475 18.8996 489.306 18.8996C481.178 18.8996 475.168 21.4711 471.273 26.6141C467.379 31.757 465.432 39.5244 465.432 49.9162C465.432 60.2867 467.39 68.107 471.305 73.377C475.242 78.6469 481.136 81.2819 488.988 81.2819C492.967 81.2819 496.554 80.9539 499.75 80.2978V62.8371H487.591C486.152 62.8371 485.104 62.2974 484.448 61.218C483.813 60.1386 483.496 58.3819 483.496 55.948V51.5352C483.496 49.1648 483.813 47.4293 484.448 46.3288C485.104 45.2494 486.152 44.7097 487.591 44.7097H515.56C517.528 44.7097 518.957 45.133 519.846 45.9796C520.714 46.8473 521.148 48.2336 521.148 50.1384V88.4884C521.148 92.6366 517.687 95.4939 510.766 97.06C503.846 98.6474 496.586 99.441 488.988 99.441ZM579.117 99.441C570.736 99.441 563.561 98.1183 557.593 95.4727C551.624 92.8483 547.074 89.0387 543.942 84.0439C540.788 79.0491 539.211 73.0383 539.211 66.0117V5.94696C539.211 4.44428 539.878 3.32256 541.211 2.58181C542.566 1.84105 544.661 1.47067 547.497 1.47067H552.132C554.99 1.47067 557.074 1.84105 558.386 2.58181C559.699 3.32256 560.355 4.44428 560.355 5.94696V64.6149C560.355 67.8319 561.148 70.6997 562.736 73.2182C564.302 75.758 566.503 77.7369 569.339 79.1549C572.196 80.5729 575.456 81.2819 579.117 81.2819C582.778 81.2819 586.048 80.5729 588.927 79.1549C591.784 77.7369 594.017 75.758 595.625 73.2182C597.234 70.6997 598.038 67.8319 598.038 64.6149V5.94696C598.038 4.44428 598.694 3.32256 600.006 2.58181C601.319 1.84105 603.393 1.47067 606.229 1.47067H610.832C613.668 1.47067 615.742 1.84105 617.054 2.58181C618.367 3.32256 619.023 4.44428 619.023 5.94696V66.0117C619.023 73.0383 617.446 79.0491 614.292 84.0439C611.139 89.0387 606.578 92.8483 600.61 95.4727C594.641 98.1183 587.477 99.441 579.117 99.441ZM645.15 98.6474C642.356 98.6474 640.272 98.2664 638.896 97.5045C637.542 96.7214 636.864 95.6103 636.864 94.1711V5.94696C636.864 2.89927 639.626 1.37543 645.15 1.37543H649.944C652.78 1.37543 654.865 1.76697 656.198 2.55006C657.51 3.31198 658.166 4.44428 658.166 5.94696V94.1711C658.166 97.1553 655.426 98.6474 649.944 98.6474H645.15ZM682.103 98.2664C680.199 98.2664 678.802 97.8219 677.913 96.933C677.045 96.0653 676.611 94.679 676.611 92.7742V7.28032C676.611 5.35435 677.045 3.96808 677.913 3.1215C678.802 2.27492 680.199 1.85163 682.103 1.85163H712.961C722.422 1.85163 730.443 3.69294 737.025 7.37556C743.607 11.0793 748.592 16.5186 751.978 23.6934C755.364 30.8893 757.057 39.6514 757.057 49.9796C757.057 60.3714 755.364 69.1547 751.978 76.3294C748.592 83.5042 743.607 88.954 737.025 92.679C730.443 96.4039 722.422 98.2664 712.961 98.2664H682.103ZM698.008 80.2025H712.961C720.284 80.2025 725.84 77.631 729.628 72.4881C733.395 67.3451 735.279 59.8423 735.279 49.9796C735.279 40.1593 733.395 32.6777 729.628 27.5347C725.84 22.3918 720.284 19.8203 712.961 19.8203H698.008V80.2025ZM777.883 98.2664C775.978 98.2664 774.592 97.8219 773.724 96.933C772.835 96.0653 772.391 94.679 772.391 92.7742V7.28032C772.391 5.35435 772.835 3.96808 773.724 3.1215C774.592 2.27492 775.978 1.85163 777.883 1.85163H828.36C829.8 1.85163 830.847 2.39132 831.503 3.47071C832.138 4.5501 832.456 6.30675 832.456 8.74066V12.9312C832.456 15.3652 832.138 17.1218 831.503 18.2012C830.847 19.2806 829.8 19.8203 828.36 19.8203H793.63V39.8207H824.646C826.085 39.8207 827.122 40.3604 827.757 41.4398C828.413 42.5403 828.741 44.297 828.741 46.7097V50.9955C828.741 53.4083 828.413 55.1649 827.757 56.2655C827.122 57.3449 826.085 57.8846 824.646 57.8846H793.63V80.2025H828.424C829.884 80.2025 830.932 80.7422 831.567 81.8216C832.223 82.9222 832.551 84.6576 832.551 87.0281V91.3774C832.551 93.7901 832.223 95.5468 831.567 96.6473C830.932 97.7267 829.884 98.2664 828.424 98.2664H777.883Z" fill="#43B97F"/>
</g>
</g>
<g clip-path="url(#clip7_16_4)">
<g clip-path="url(#clip8_16_4)">
<path d="M3.84567 169.464C3.43917 169.464 3.08551 169.35 2.7847 169.122C2.47576 168.903 2.32129 168.59 2.32129 168.183V126.354C2.32129 125.785 2.47576 125.399 2.7847 125.196C3.08551 124.993 3.43917 124.891 3.84567 124.891C4.21152 124.891 4.54891 125.021 4.85785 125.281C5.15866 125.55 5.44321 125.875 5.7115 126.257C5.97166 126.647 6.18304 127.025 6.34565 127.391L17.5041 149.22L28.7845 127.391C28.9877 127.025 29.2113 126.647 29.4552 126.257C29.6991 125.875 29.9837 125.55 30.3089 125.281C30.6341 125.021 30.9593 124.891 31.2845 124.891C31.7316 124.891 32.0975 124.993 32.382 125.196C32.6666 125.399 32.8088 125.785 32.8088 126.354V168.183C32.8088 168.59 32.6584 168.903 32.3576 169.122C32.0487 169.35 31.691 169.464 31.2845 169.464C30.9186 169.464 30.5731 169.35 30.2479 169.122C29.9227 168.903 29.7601 168.59 29.7601 168.183V131.842L18.9065 152.574C18.7033 153.021 18.4797 153.334 18.2358 153.513C17.9919 153.7 17.748 153.793 17.5041 153.793C17.3008 153.793 17.0773 153.7 16.8334 153.513C16.5895 153.334 16.3659 153.021 16.1626 152.574L5.37004 131.72V168.183C5.37004 168.59 5.20744 168.903 4.88224 169.122C4.55704 169.35 4.21152 169.464 3.84567 169.464ZM54.1623 169.83C51.8046 169.83 49.8128 169.167 48.1868 167.842C46.5607 166.525 45.7477 164.504 45.7477 161.781C45.7477 159.626 46.3494 157.96 47.5526 156.781C48.7477 155.602 50.4144 154.777 52.5526 154.305C54.6826 153.842 57.1501 153.61 59.9549 153.61H63.2476V152.025C63.2476 150.602 62.9956 149.2 62.4915 147.818C61.9793 146.436 61.1663 145.297 60.0525 144.403C58.9306 143.509 57.4346 143.062 55.5647 143.062C54.2639 143.062 53.1989 143.192 52.3696 143.452C51.5323 143.72 50.8615 144.005 50.3575 144.305C49.8453 144.614 49.4469 144.769 49.1624 144.769C48.7558 144.769 48.4307 144.574 48.1868 144.184C47.9428 143.801 47.8209 143.448 47.8209 143.123C47.8209 142.635 48.2193 142.175 49.016 141.745C49.8046 141.322 50.8087 140.976 52.0282 140.708C53.2477 140.448 54.4672 140.318 55.6867 140.318C58.3289 140.318 60.4143 140.875 61.9427 141.988C63.463 143.11 64.5606 144.553 65.2354 146.318C65.902 148.09 66.2354 149.992 66.2354 152.025V168.183C66.2354 168.509 66.1053 168.801 65.8451 169.061C65.5768 169.33 65.2191 169.464 64.772 169.464C64.3655 169.464 64.0199 169.33 63.7354 169.061C63.4508 168.801 63.3086 168.509 63.3086 168.183V165.196C62.2923 166.374 61.024 167.439 59.5037 168.391C57.9753 169.35 56.1948 169.83 54.1623 169.83ZM54.5891 167.147C56.0119 167.147 57.3859 166.789 58.7111 166.074C60.0281 165.366 61.1135 164.492 61.9671 163.452C62.8208 162.419 63.2476 161.456 63.2476 160.561V156.049H60.2598C58.268 156.049 56.3981 156.159 54.6501 156.379C52.9022 156.606 51.4794 157.118 50.3819 157.915C49.2843 158.704 48.7355 159.952 48.7355 161.659C48.7355 163.57 49.3046 164.96 50.4428 165.83C51.581 166.708 52.9631 167.147 54.5891 167.147ZM81.5035 169.464C81.097 169.464 80.7515 169.33 80.467 169.061C80.1824 168.801 80.0401 168.509 80.0401 168.183V124.037C80.0401 123.631 80.1824 123.318 80.467 123.098C80.7515 122.871 81.097 122.757 81.5035 122.757C81.9507 122.757 82.3165 122.871 82.6011 123.098C82.8856 123.318 83.0279 123.631 83.0279 124.037V154.708L98.7595 140.927C99.044 140.724 99.3083 140.623 99.5522 140.623C99.7961 140.623 100.028 140.671 100.247 140.769C100.475 140.875 100.67 141.029 100.833 141.232C100.995 141.436 101.077 141.7 101.077 142.025C101.077 142.188 101.056 142.358 101.016 142.537C100.975 142.724 100.853 142.879 100.65 143.001L91.2596 151.232L102.174 167.33C102.337 167.533 102.418 167.756 102.418 168C102.418 168.244 102.345 168.488 102.198 168.732C102.06 168.976 101.869 169.167 101.625 169.305C101.381 169.452 101.117 169.525 100.833 169.525C100.426 169.525 100.101 169.322 99.857 168.915L89.0644 153.122L83.0279 158.427V168.183C83.0279 168.509 82.8856 168.801 82.6011 169.061C82.3165 169.33 81.9507 169.464 81.5035 169.464ZM124.015 169.83C121.536 169.83 119.349 169.362 117.454 168.427C115.568 167.492 114.076 166.179 112.979 164.488C111.881 162.805 111.333 160.826 111.333 158.549V151.293C111.333 149.301 111.849 147.472 112.881 145.805C113.922 144.139 115.284 142.805 116.967 141.805C118.658 140.814 120.519 140.318 122.552 140.318C124.544 140.318 126.373 140.793 128.04 141.745C129.706 142.704 131.056 144.005 132.088 145.647C133.129 147.297 133.649 149.2 133.649 151.354C133.649 152.858 133.393 153.944 132.881 154.61C132.377 155.285 131.739 155.692 130.967 155.83C130.194 155.976 129.361 156.049 128.467 156.049H114.32V158.61C114.32 161.212 115.255 163.273 117.125 164.793C118.995 166.322 121.332 167.086 124.137 167.086C125.804 167.086 127.084 166.883 127.979 166.476C128.873 166.07 129.564 165.663 130.052 165.257C130.54 164.85 130.987 164.647 131.393 164.647C131.678 164.647 131.922 164.728 132.125 164.891C132.328 165.053 132.491 165.244 132.613 165.464C132.735 165.691 132.796 165.907 132.796 166.11C132.796 166.517 132.438 167.025 131.723 167.635C131.015 168.244 130.011 168.761 128.71 169.183C127.41 169.614 125.845 169.83 124.015 169.83ZM114.32 151.049V153.549H127.308C128.69 153.549 129.605 153.407 130.052 153.122C130.499 152.838 130.723 152.248 130.723 151.354C130.723 149.972 130.385 148.639 129.71 147.354C129.044 146.078 128.089 145.033 126.845 144.22C125.609 143.407 124.178 143.001 122.552 143.001C121.007 143.001 119.613 143.366 118.369 144.098C117.133 144.83 116.15 145.805 115.418 147.025C114.686 148.244 114.32 149.586 114.32 151.049ZM176.003 169.464C175.596 169.464 175.238 169.35 174.93 169.122C174.629 168.903 174.478 168.59 174.478 168.183V152.635C174.478 152.472 174.438 152.33 174.356 152.208L161.735 127.391C161.653 127.147 161.58 126.923 161.515 126.72C161.458 126.517 161.43 126.354 161.43 126.232C161.43 125.948 161.511 125.716 161.674 125.537C161.836 125.35 162.019 125.196 162.222 125.074C162.426 124.952 162.649 124.891 162.893 124.891C163.137 124.891 163.381 124.98 163.625 125.159C163.869 125.346 164.092 125.623 164.296 125.989L176.003 149.464L187.771 125.989C187.974 125.623 188.198 125.346 188.442 125.159C188.686 124.98 188.929 124.891 189.173 124.891C189.417 124.891 189.641 124.952 189.844 125.074C190.047 125.196 190.218 125.35 190.356 125.537C190.503 125.716 190.576 125.948 190.576 126.232C190.576 126.354 190.555 126.517 190.515 126.72C190.474 126.923 190.393 127.147 190.271 127.391L177.588 152.208C177.547 152.33 177.527 152.472 177.527 152.635V168.183C177.527 168.59 177.365 168.903 177.039 169.122C176.714 169.35 176.369 169.464 176.003 169.464ZM206.076 169.83C204.124 169.83 202.295 169.301 200.588 168.244C198.881 167.187 197.507 165.805 196.466 164.098C195.433 162.391 194.917 160.541 194.917 158.549V151.476C194.917 149.484 195.425 147.635 196.442 145.927C197.458 144.22 198.82 142.858 200.527 141.842C202.234 140.826 204.084 140.318 206.076 140.318C208.108 140.318 209.966 140.814 211.649 141.805C213.34 142.805 214.702 144.147 215.734 145.83C216.775 147.521 217.295 149.403 217.295 151.476V158.549C217.295 160.5 216.775 162.342 215.734 164.074C214.702 165.797 213.34 167.187 211.649 168.244C209.966 169.301 208.108 169.83 206.076 169.83ZM206.076 167.025C207.62 167.025 209.002 166.618 210.222 165.805C211.441 164.992 212.425 163.935 213.173 162.635C213.929 161.334 214.307 159.972 214.307 158.549V151.476C214.307 150.053 213.941 148.712 213.21 147.452C212.478 146.192 211.49 145.155 210.246 144.342C209.011 143.529 207.62 143.123 206.076 143.123C204.531 143.123 203.149 143.529 201.929 144.342C200.71 145.155 199.734 146.192 199.003 147.452C198.271 148.712 197.905 150.053 197.905 151.476V158.549C197.905 159.972 198.271 161.334 199.003 162.635C199.734 163.935 200.718 164.992 201.954 165.805C203.198 166.618 204.572 167.025 206.076 167.025ZM241.149 169.83C239.116 169.83 237.246 169.309 235.539 168.269C233.832 167.236 232.47 165.866 231.453 164.159C230.437 162.452 229.929 160.622 229.929 158.671V141.964C229.929 141.639 230.084 141.342 230.393 141.074C230.693 140.814 231.047 140.684 231.453 140.684C231.86 140.684 232.206 140.814 232.49 141.074C232.775 141.342 232.917 141.639 232.917 141.964V158.671C232.917 160.094 233.283 161.435 234.014 162.696C234.746 163.956 235.734 164.992 236.978 165.805C238.214 166.618 239.604 167.025 241.149 167.025C242.693 167.025 244.075 166.626 245.295 165.83C246.514 165.041 247.49 164.004 248.222 162.72C248.953 161.444 249.319 160.094 249.319 158.671V141.903C249.319 141.578 249.474 141.293 249.783 141.049C250.083 140.805 250.437 140.684 250.844 140.684C251.291 140.684 251.648 140.805 251.917 141.049C252.177 141.293 252.307 141.578 252.307 141.903V158.671C252.307 160.663 251.799 162.513 250.783 164.22C249.766 165.927 248.417 167.289 246.734 168.305C245.043 169.322 243.181 169.83 241.149 169.83ZM267.502 169.464C267.095 169.464 266.75 169.33 266.465 169.061C266.181 168.801 266.039 168.509 266.039 168.183V141.903C266.039 141.537 266.181 141.24 266.465 141.013C266.75 140.793 267.095 140.684 267.502 140.684C267.949 140.684 268.307 140.793 268.575 141.013C268.835 141.24 268.965 141.537 268.965 141.903V145.013C269.453 144.2 270.083 143.436 270.856 142.72C271.628 142.013 272.555 141.436 273.636 140.988C274.709 140.541 275.937 140.318 277.319 140.318H279.514C279.88 140.318 280.185 140.448 280.429 140.708C280.673 140.976 280.795 141.314 280.795 141.72C280.795 142.127 280.673 142.46 280.429 142.72C280.185 142.988 279.88 143.123 279.514 143.123H277.319C275.937 143.123 274.608 143.476 273.331 144.184C272.047 144.899 271.01 145.915 270.221 147.232C269.425 148.557 269.026 150.155 269.026 152.025V168.183C269.026 168.509 268.884 168.801 268.6 169.061C268.315 169.33 267.949 169.464 267.502 169.464ZM312.172 169.464C311.766 169.464 311.412 169.35 311.111 169.122C310.802 168.903 310.648 168.59 310.648 168.183V126.11C310.648 125.704 310.802 125.399 311.111 125.196C311.412 124.993 311.766 124.891 312.172 124.891C312.538 124.891 312.884 124.993 313.209 125.196C313.534 125.399 313.697 125.704 313.697 126.11V144.952H332.294V126.11C332.294 125.704 332.449 125.399 332.757 125.196C333.058 124.993 333.412 124.891 333.818 124.891C334.184 124.891 334.53 124.993 334.855 125.196C335.18 125.399 335.343 125.704 335.343 126.11V168.183C335.343 168.59 335.18 168.903 334.855 169.122C334.53 169.35 334.184 169.464 333.818 169.464C333.412 169.464 333.058 169.35 332.757 169.122C332.449 168.903 332.294 168.59 332.294 168.183V147.757H313.697V168.183C313.697 168.59 313.534 168.903 313.209 169.122C312.884 169.35 312.538 169.464 312.172 169.464ZM359.928 169.83C357.977 169.83 356.148 169.301 354.44 168.244C352.733 167.187 351.363 165.805 350.33 164.098C349.29 162.391 348.77 160.541 348.77 158.549V151.476C348.77 149.484 349.278 147.635 350.294 145.927C351.31 144.22 352.672 142.858 354.379 141.842C356.087 140.826 357.936 140.318 359.928 140.318C361.96 140.318 363.822 140.814 365.513 141.805C367.196 142.805 368.558 144.147 369.599 145.83C370.631 147.521 371.147 149.403 371.147 151.476V158.549C371.147 160.5 370.631 162.342 369.599 164.074C368.558 165.797 367.196 167.187 365.513 168.244C363.822 169.301 361.96 169.83 359.928 169.83ZM359.928 167.025C361.473 167.025 362.855 166.618 364.074 165.805C365.294 164.992 366.282 163.935 367.038 162.635C367.786 161.334 368.16 159.972 368.16 158.549V151.476C368.16 150.053 367.794 148.712 367.062 147.452C366.33 146.192 365.347 145.155 364.111 144.342C362.867 143.529 361.473 143.123 359.928 143.123C358.383 143.123 357.001 143.529 355.782 144.342C354.562 145.155 353.587 146.192 352.855 147.452C352.123 148.712 351.757 150.053 351.757 151.476V158.549C351.757 159.972 352.123 161.334 352.855 162.635C353.587 163.935 354.574 164.992 355.818 165.805C357.054 166.618 358.424 167.025 359.928 167.025ZM386.05 169.464C385.643 169.464 385.298 169.33 385.013 169.061C384.729 168.801 384.586 168.509 384.586 168.183V124.037C384.586 123.631 384.729 123.318 385.013 123.098C385.298 122.871 385.643 122.757 386.05 122.757C386.497 122.757 386.863 122.871 387.147 123.098C387.432 123.318 387.574 123.631 387.574 124.037V168.183C387.574 168.509 387.432 168.801 387.147 169.061C386.863 169.33 386.497 169.464 386.05 169.464ZM403.623 169.464C403.216 169.464 402.871 169.33 402.586 169.061C402.302 168.801 402.159 168.509 402.159 168.183V141.903C402.159 141.537 402.302 141.24 402.586 141.013C402.871 140.793 403.216 140.684 403.623 140.684C404.07 140.684 404.436 140.793 404.72 141.013C405.005 141.24 405.147 141.537 405.147 141.903V168.183C405.147 168.509 405.005 168.801 404.72 169.061C404.436 169.33 404.07 169.464 403.623 169.464ZM403.623 131.598C403.013 131.598 402.472 131.375 402.001 130.928C401.537 130.48 401.306 129.952 401.306 129.342C401.306 128.732 401.537 128.224 402.001 127.818C402.472 127.411 403.013 127.208 403.623 127.208C404.273 127.208 404.81 127.411 405.232 127.818C405.663 128.224 405.879 128.732 405.879 129.342C405.879 129.952 405.663 130.48 405.232 130.928C404.81 131.375 404.273 131.598 403.623 131.598ZM428.94 169.83C427.029 169.83 425.24 169.301 423.574 168.244C421.907 167.187 420.578 165.797 419.586 164.074C418.586 162.342 418.086 160.5 418.086 158.549V151.476C418.086 149.403 418.586 147.521 419.586 145.83C420.578 144.147 421.907 142.805 423.574 141.805C425.24 140.814 427.07 140.318 429.062 140.318C431.094 140.318 432.793 140.793 434.159 141.745C435.517 142.704 436.521 143.773 437.171 144.952V124.037C437.171 123.631 437.326 123.318 437.635 123.098C437.935 122.871 438.289 122.757 438.696 122.757C439.143 122.757 439.5 122.871 439.769 123.098C440.029 123.318 440.159 123.631 440.159 124.037V168.183C440.159 168.509 440.029 168.801 439.769 169.061C439.5 169.33 439.143 169.464 438.696 169.464C438.33 169.464 437.996 169.33 437.696 169.061C437.387 168.801 437.232 168.509 437.232 168.183V165.196C436.622 166.456 435.557 167.541 434.037 168.452C432.509 169.37 430.809 169.83 428.94 169.83ZM429.183 167.025C430.728 167.025 432.102 166.626 433.305 165.83C434.501 165.041 435.444 164.139 436.135 163.122C436.826 162.106 437.171 161.273 437.171 160.622V151.476C437.171 149.728 436.785 148.232 436.013 146.988C435.24 145.753 434.257 144.797 433.061 144.123C431.858 143.456 430.586 143.123 429.244 143.123C427.781 143.123 426.431 143.529 425.196 144.342C423.952 145.155 422.956 146.192 422.208 147.452C421.452 148.712 421.074 150.053 421.074 151.476V158.549C421.074 159.972 421.452 161.334 422.208 162.635C422.956 163.935 423.94 164.992 425.159 165.805C426.379 166.618 427.72 167.025 429.183 167.025ZM460.732 169.83C458.374 169.83 456.382 169.167 454.756 167.842C453.13 166.525 452.317 164.504 452.317 161.781C452.317 159.626 452.915 157.96 454.11 156.781C455.313 155.602 456.98 154.777 459.11 154.305C461.248 153.842 463.72 153.61 466.525 153.61H469.817V152.025C469.817 150.602 469.561 149.2 469.049 147.818C468.545 146.436 467.732 145.297 466.61 144.403C465.496 143.509 464.004 143.062 462.134 143.062C460.834 143.062 459.765 143.192 458.927 143.452C458.098 143.72 457.427 144.005 456.915 144.305C456.411 144.614 456.017 144.769 455.732 144.769C455.326 144.769 455 144.574 454.756 144.184C454.513 143.801 454.391 143.448 454.391 143.123C454.391 142.635 454.785 142.175 455.574 141.745C456.37 141.322 457.378 140.976 458.598 140.708C459.817 140.448 461.037 140.318 462.256 140.318C464.899 140.318 466.98 140.875 468.5 141.988C470.029 143.11 471.126 144.553 471.793 146.318C472.468 148.09 472.805 149.992 472.805 152.025V168.183C472.805 168.509 472.671 168.801 472.403 169.061C472.142 169.33 471.789 169.464 471.342 169.464C470.935 169.464 470.59 169.33 470.305 169.061C470.021 168.801 469.878 168.509 469.878 168.183V165.196C468.862 166.374 467.59 167.439 466.061 168.391C464.541 169.35 462.764 169.83 460.732 169.83ZM461.159 167.147C462.582 167.147 463.951 166.789 465.269 166.074C466.594 165.366 467.683 164.492 468.537 163.452C469.39 162.419 469.817 161.456 469.817 160.561V156.049H466.829C464.838 156.049 462.968 156.159 461.22 156.379C459.472 156.606 458.049 157.118 456.952 157.915C455.854 158.704 455.305 159.952 455.305 161.659C455.305 163.57 455.874 164.96 457.013 165.83C458.151 166.708 459.533 167.147 461.159 167.147ZM484.585 183.793C484.22 183.793 483.894 183.671 483.61 183.427C483.325 183.183 483.183 182.838 483.183 182.391C483.183 182.025 483.264 181.699 483.427 181.415C483.59 181.13 483.874 180.988 484.281 180.988C485.297 180.988 486.24 180.634 487.11 179.927C487.988 179.212 488.801 178.236 489.549 177C490.305 175.756 490.976 174.403 491.561 172.939C492.154 171.476 492.675 169.992 493.122 168.488L483.244 142.208C483.163 142.005 483.122 141.842 483.122 141.72C483.122 141.436 483.211 141.192 483.39 140.988C483.577 140.785 483.801 140.61 484.061 140.464C484.329 140.326 484.606 140.257 484.89 140.257C485.134 140.257 485.378 140.326 485.622 140.464C485.866 140.61 486.008 140.805 486.049 141.049L494.646 164.525L503 141.049C503.122 140.805 503.284 140.61 503.488 140.464C503.691 140.326 503.915 140.257 504.158 140.257C504.443 140.257 504.715 140.318 504.976 140.44C505.244 140.562 505.467 140.732 505.646 140.952C505.833 141.179 505.927 141.436 505.927 141.72C505.927 141.923 505.886 142.086 505.805 142.208L496.171 168.488C495.642 170.074 495.032 171.752 494.341 173.525C493.65 175.289 492.846 176.943 491.927 178.488C491.016 180.033 489.959 181.305 488.756 182.305C487.561 183.297 486.171 183.793 484.585 183.793ZM537.658 169.464C537.252 169.464 536.898 169.35 536.597 169.122C536.288 168.903 536.134 168.59 536.134 168.183V126.354C536.134 125.785 536.288 125.399 536.597 125.196C536.898 124.993 537.252 124.891 537.658 124.891C538.024 124.891 538.361 125.021 538.67 125.281C538.971 125.55 539.256 125.875 539.524 126.257C539.784 126.647 539.996 127.025 540.158 127.391L551.317 149.22L562.597 127.391C562.8 127.025 563.024 126.647 563.268 126.257C563.512 125.875 563.796 125.55 564.121 125.281C564.447 125.021 564.772 124.891 565.097 124.891C565.544 124.891 565.91 124.993 566.195 125.196C566.479 125.399 566.621 125.785 566.621 126.354V168.183C566.621 168.59 566.471 168.903 566.17 169.122C565.861 169.35 565.503 169.464 565.097 169.464C564.731 169.464 564.386 169.35 564.06 169.122C563.735 168.903 563.573 168.59 563.573 168.183V131.842L552.719 152.574C552.516 153.021 552.292 153.334 552.048 153.513C551.804 153.7 551.56 153.793 551.317 153.793C551.113 153.793 550.89 153.7 550.646 153.513C550.402 153.334 550.178 153.021 549.975 152.574L539.183 131.72V168.183C539.183 168.59 539.02 168.903 538.695 169.122C538.37 169.35 538.024 169.464 537.658 169.464ZM592.865 169.83C590.385 169.83 588.198 169.362 586.304 168.427C584.418 167.492 582.926 166.179 581.829 164.488C580.731 162.805 580.182 160.826 580.182 158.549V151.293C580.182 149.301 580.698 147.472 581.731 145.805C582.772 144.139 584.133 142.805 585.816 141.805C587.507 140.814 589.369 140.318 591.402 140.318C593.393 140.318 595.223 140.793 596.889 141.745C598.556 142.704 599.906 144.005 600.938 145.647C601.979 147.297 602.499 149.2 602.499 151.354C602.499 152.858 602.243 153.944 601.731 154.61C601.227 155.285 600.589 155.692 599.816 155.83C599.044 155.976 598.21 156.049 597.316 156.049H583.17V158.61C583.17 161.212 584.105 163.273 585.975 164.793C587.845 166.322 590.182 167.086 592.987 167.086C594.654 167.086 595.934 166.883 596.828 166.476C597.723 166.07 598.414 165.663 598.902 165.257C599.389 164.85 599.836 164.647 600.243 164.647C600.528 164.647 600.771 164.728 600.975 164.891C601.178 165.053 601.341 165.244 601.462 165.464C601.584 165.691 601.645 165.907 601.645 166.11C601.645 166.517 601.288 167.025 600.572 167.635C599.865 168.244 598.861 168.761 597.56 169.183C596.259 169.614 594.694 169.83 592.865 169.83ZM583.17 151.049V153.549H596.158C597.54 153.549 598.454 153.407 598.902 153.122C599.349 152.838 599.572 152.248 599.572 151.354C599.572 149.972 599.235 148.639 598.56 147.354C597.893 146.078 596.938 145.033 595.694 144.22C594.458 143.407 593.028 143.001 591.402 143.001C589.857 143.001 588.463 143.366 587.219 144.098C585.983 144.83 584.999 145.805 584.268 147.025C583.536 148.244 583.17 149.586 583.17 151.049ZM616.231 169.464C615.824 169.464 615.479 169.33 615.194 169.061C614.91 168.801 614.767 168.509 614.767 168.183V141.903C614.767 141.537 614.91 141.24 615.194 141.013C615.479 140.793 615.824 140.684 616.231 140.684C616.678 140.684 617.036 140.793 617.304 141.013C617.564 141.24 617.694 141.537 617.694 141.903V144.952C618.385 143.773 619.414 142.704 620.779 141.745C622.137 140.793 623.832 140.318 625.865 140.318C627.938 140.318 629.759 140.887 631.328 142.025C632.889 143.163 634.035 144.627 634.767 146.415C635.824 144.342 637.198 142.805 638.889 141.805C640.572 140.814 642.287 140.318 644.035 140.318C645.783 140.318 647.421 140.745 648.95 141.598C650.47 142.452 651.718 143.712 652.694 145.379C653.669 147.045 654.157 149.078 654.157 151.476V168.183C654.157 168.509 654.015 168.801 653.73 169.061C653.446 169.33 653.08 169.464 652.633 169.464C652.226 169.464 651.881 169.33 651.596 169.061C651.312 168.801 651.169 168.509 651.169 168.183V151.476C651.169 149.647 650.795 148.11 650.047 146.866C649.291 145.631 648.344 144.696 647.206 144.062C646.068 143.436 644.889 143.123 643.669 143.123C642.369 143.123 641.141 143.456 639.987 144.123C638.824 144.797 637.869 145.732 637.121 146.927C636.365 148.131 635.987 149.545 635.987 151.171V168.244C635.987 168.651 635.824 168.956 635.499 169.159C635.174 169.362 634.828 169.464 634.462 169.464C634.096 169.464 633.763 169.362 633.462 169.159C633.153 168.956 632.999 168.651 632.999 168.244V151.232C632.999 149.647 632.653 148.253 631.962 147.049C631.271 145.854 630.377 144.899 629.279 144.184C628.182 143.476 626.942 143.123 625.56 143.123C624.3 143.123 623.072 143.456 621.877 144.123C620.674 144.797 619.686 145.744 618.914 146.964C618.141 148.183 617.755 149.688 617.755 151.476V168.183C617.755 168.509 617.613 168.801 617.328 169.061C617.044 169.33 616.678 169.464 616.231 169.464ZM677.95 169.83C675.998 169.83 674.169 169.301 672.462 168.244C670.755 167.187 669.385 165.805 668.352 164.098C667.312 162.391 666.791 160.541 666.791 158.549V151.476C666.791 149.484 667.299 147.635 668.316 145.927C669.332 144.22 670.694 142.858 672.401 141.842C674.108 140.826 675.958 140.318 677.95 140.318C679.982 140.318 681.844 140.814 683.535 141.805C685.218 142.805 686.58 144.147 687.62 145.83C688.653 147.521 689.169 149.403 689.169 151.476V158.549C689.169 160.5 688.653 162.342 687.62 164.074C686.58 165.797 685.218 167.187 683.535 168.244C681.844 169.301 679.982 169.83 677.95 169.83ZM677.95 167.025C679.494 167.025 680.876 166.618 682.096 165.805C683.315 164.992 684.303 163.935 685.059 162.635C685.807 161.334 686.181 159.972 686.181 158.549V151.476C686.181 150.053 685.815 148.712 685.084 147.452C684.352 146.192 683.368 145.155 682.133 144.342C680.889 143.529 679.494 143.123 677.95 143.123C676.405 143.123 675.023 143.529 673.803 144.342C672.584 145.155 671.608 146.192 670.876 147.452C670.145 148.712 669.779 150.053 669.779 151.476V158.549C669.779 159.972 670.145 161.334 670.876 162.635C671.608 163.935 672.596 164.992 673.84 165.805C675.076 166.618 676.446 167.025 677.95 167.025ZM703.523 169.464C703.116 169.464 702.771 169.33 702.486 169.061C702.201 168.801 702.059 168.509 702.059 168.183V141.903C702.059 141.537 702.201 141.24 702.486 141.013C702.771 140.793 703.116 140.684 703.523 140.684C703.97 140.684 704.323 140.793 704.584 141.013C704.852 141.24 704.986 141.537 704.986 141.903V145.013C705.474 144.2 706.104 143.436 706.876 142.72C707.649 142.013 708.571 141.436 709.645 140.988C710.726 140.541 711.957 140.318 713.34 140.318H715.535C715.901 140.318 716.205 140.448 716.449 140.708C716.693 140.976 716.815 141.314 716.815 141.72C716.815 142.127 716.693 142.46 716.449 142.72C716.205 142.988 715.901 143.123 715.535 143.123H713.34C711.957 143.123 710.624 143.476 709.34 144.184C708.063 144.899 707.027 145.915 706.23 147.232C705.441 148.557 705.047 150.155 705.047 152.025V168.183C705.047 168.509 704.905 168.801 704.62 169.061C704.336 169.33 703.97 169.464 703.523 169.464ZM732.376 169.83C730.018 169.83 728.026 169.167 726.4 167.842C724.774 166.525 723.961 164.504 723.961 161.781C723.961 159.626 724.559 157.96 725.754 156.781C726.957 155.602 728.624 154.777 730.754 154.305C732.892 153.842 735.364 153.61 738.169 153.61H741.461V152.025C741.461 150.602 741.205 149.2 740.693 147.818C740.189 146.436 739.376 145.297 738.254 144.403C737.14 143.509 735.648 143.062 733.778 143.062C732.478 143.062 731.409 143.192 730.571 143.452C729.742 143.72 729.071 144.005 728.559 144.305C728.055 144.614 727.661 144.769 727.376 144.769C726.97 144.769 726.644 144.574 726.4 144.184C726.157 143.801 726.035 143.448 726.035 143.123C726.035 142.635 726.429 142.175 727.217 141.745C728.014 141.322 729.022 140.976 730.242 140.708C731.461 140.448 732.681 140.318 733.9 140.318C736.543 140.318 738.624 140.875 740.144 141.988C741.673 143.11 742.77 144.553 743.437 146.318C744.112 148.09 744.449 149.992 744.449 152.025V168.183C744.449 168.509 744.315 168.801 744.047 169.061C743.786 169.33 743.433 169.464 742.986 169.464C742.579 169.464 742.234 169.33 741.949 169.061C741.665 168.801 741.522 168.509 741.522 168.183V165.196C740.506 166.374 739.234 167.439 737.705 168.391C736.185 169.35 734.409 169.83 732.376 169.83ZM732.803 167.147C734.226 167.147 735.595 166.789 736.913 166.074C738.238 165.366 739.327 164.492 740.181 163.452C741.034 162.419 741.461 161.456 741.461 160.561V156.049H738.474C736.482 156.049 734.612 156.159 732.864 156.379C731.116 156.606 729.693 157.118 728.596 157.915C727.498 158.704 726.949 159.952 726.949 161.659C726.949 163.57 727.518 164.96 728.656 165.83C729.795 166.708 731.177 167.147 732.803 167.147ZM769.522 169.83C767.611 169.83 765.916 169.37 764.437 168.452C762.949 167.541 761.86 166.456 761.168 165.196V168.183C761.168 168.509 761.038 168.801 760.778 169.061C760.51 169.33 760.152 169.464 759.705 169.464C759.299 169.464 758.953 169.33 758.668 169.061C758.384 168.801 758.242 168.509 758.242 168.183V124.037C758.242 123.631 758.384 123.318 758.668 123.098C758.953 122.871 759.299 122.757 759.705 122.757C760.152 122.757 760.518 122.871 760.803 123.098C761.087 123.318 761.229 123.631 761.229 124.037V144.952C761.92 143.773 762.949 142.704 764.315 141.745C765.672 140.793 767.347 140.318 769.339 140.318C771.331 140.318 773.16 140.814 774.827 141.805C776.494 142.805 777.827 144.147 778.827 145.83C779.819 147.521 780.315 149.403 780.315 151.476V158.549C780.315 160.5 779.819 162.342 778.827 164.074C777.827 165.797 776.506 167.187 774.863 168.244C773.213 169.301 771.433 169.83 769.522 169.83ZM769.217 167.025C770.681 167.025 772.022 166.618 773.241 165.805C774.461 164.992 775.449 163.935 776.205 162.635C776.953 161.334 777.327 159.972 777.327 158.549V151.476C777.327 150.053 776.953 148.712 776.205 147.452C775.449 146.192 774.461 145.155 773.241 144.342C772.022 143.529 770.66 143.123 769.156 143.123C767.855 143.123 766.595 143.456 765.376 144.123C764.156 144.797 763.16 145.753 762.388 146.988C761.616 148.232 761.229 149.728 761.229 151.476V160.622C761.229 161.273 761.587 162.106 762.303 163.122C763.01 164.139 763.965 165.041 765.168 165.83C766.363 166.626 767.713 167.025 769.217 167.025ZM795.278 169.464C794.871 169.464 794.526 169.33 794.241 169.061C793.957 168.801 793.815 168.509 793.815 168.183V124.037C793.815 123.631 793.957 123.318 794.241 123.098C794.526 122.871 794.871 122.757 795.278 122.757C795.725 122.757 796.091 122.871 796.375 123.098C796.66 123.318 796.802 123.631 796.802 124.037V168.183C796.802 168.509 796.66 168.801 796.375 169.061C796.091 169.33 795.725 169.464 795.278 169.464ZM823.034 169.83C820.554 169.83 818.367 169.362 816.473 168.427C814.587 167.492 813.095 166.179 811.997 164.488C810.9 162.805 810.351 160.826 810.351 158.549V151.293C810.351 149.301 810.867 147.472 811.9 145.805C812.94 144.139 814.302 142.805 815.985 141.805C817.676 140.814 819.538 140.318 821.57 140.318C823.562 140.318 825.391 140.793 827.058 141.745C828.725 142.704 830.074 144.005 831.107 145.647C832.147 147.297 832.668 149.2 832.668 151.354C832.668 152.858 832.412 153.944 831.9 154.61C831.395 155.285 830.757 155.692 829.985 155.83C829.213 155.976 828.379 156.049 827.485 156.049H813.339V158.61C813.339 161.212 814.274 163.273 816.144 164.793C818.014 166.322 820.351 167.086 823.156 167.086C824.822 167.086 826.103 166.883 826.997 166.476C827.891 166.07 828.582 165.663 829.07 165.257C829.558 164.85 830.005 164.647 830.412 164.647C830.696 164.647 830.94 164.728 831.143 164.891C831.347 165.053 831.509 165.244 831.631 165.464C831.753 165.691 831.814 165.907 831.814 166.11C831.814 166.517 831.456 167.025 830.741 167.635C830.034 168.244 829.03 168.761 827.729 169.183C826.428 169.614 824.863 169.83 823.034 169.83ZM813.339 151.049V153.549H826.326C827.709 153.549 828.623 153.407 829.07 153.122C829.517 152.838 829.741 152.248 829.741 151.354C829.741 149.972 829.404 148.639 828.729 147.354C828.062 146.078 827.107 145.033 825.863 144.22C824.627 143.407 823.196 143.001 821.57 143.001C820.026 143.001 818.631 143.366 817.387 144.098C816.152 144.83 815.168 145.805 814.436 147.025C813.705 148.244 813.339 149.586 813.339 151.049Z" fill="#3D3E48"/>
</g>
</g>
</g>
</g>
</g>
</g>
</g>
<defs>
<clipPath id="clip0_16_4">
<rect width="834" height="182.646" fill="white" transform="translate(0.494629 0.911987)"/>
</clipPath>
<clipPath id="clip1_16_4">
<rect width="830.346" height="183.116" fill="white" transform="translate(2.32129 0.677002)"/>
</clipPath>
<clipPath id="clip2_16_4">
<rect width="830.346" height="183.116" fill="white" transform="translate(2.32129 0.677002)"/>
</clipPath>
<clipPath id="clip3_16_4">
<rect width="830.346" height="183.116" fill="white" transform="translate(2.32129 0.677002)"/>
</clipPath>
<clipPath id="clip4_16_4">
<rect width="830.346" height="183.116" fill="white" transform="translate(2.32129 0.677002)"/>
</clipPath>
<clipPath id="clip5_16_4">
<rect width="830.346" height="98.764" fill="white" transform="translate(2.32129 0.677002)"/>
</clipPath>
<clipPath id="clip6_16_4">
<rect width="830.346" height="98.764" fill="white" transform="translate(2.32129 0.677002)"/>
</clipPath>
<clipPath id="clip7_16_4">
<rect width="830.346" height="61.0362" fill="white" transform="translate(2.32129 122.757)"/>
</clipPath>
<clipPath id="clip8_16_4">
<rect width="830.346" height="61.0362" fill="white" transform="translate(2.32129 122.757)"/>
</clipPath>
</defs>
</svg>
